<svg xmlns="http://www.w3.org/2000/svg" width="314.2" height="71.71" viewBox="0 0 314.2 71.71"><title>screen_endorsement_Risorsa 1</title><path d="M24.26,61.49H19.08v-22L0,10.51H6.48l15.34,24.7L37.3,10.51h6l-19.08,29Z" transform="translate(0 -7.06)"/><path d="M76.82,44.64a18.37,18.37,0,0,1-1.33,7.06A16.68,16.68,0,0,1,66.1,61a19.33,19.33,0,0,1-7.28,1.33A19.09,19.09,0,0,1,51.62,61a16.68,16.68,0,0,1-9.39-9.32,19.4,19.4,0,0,1,0-14.12,16.68,16.68,0,0,1,9.39-9.32,19.09,19.09,0,0,1,7.2-1.33,19.33,19.33,0,0,1,7.28,1.33,16.68,16.68,0,0,1,9.39,9.32A18.37,18.37,0,0,1,76.82,44.64Zm-5.18,0a15.39,15.39,0,0,0-.9-5.29A12.8,12.8,0,0,0,68.18,35a11.91,11.91,0,0,0-4-2.92A12.72,12.72,0,0,0,58.82,31a12.47,12.47,0,0,0-5.29,1.08,12.05,12.05,0,0,0-4,2.92A12.8,12.8,0,0,0,47,39.35a16,16,0,0,0,0,10.58,12.8,12.8,0,0,0,2.56,4.32,11.55,11.55,0,0,0,4,2.88,12.78,12.78,0,0,0,5.29,1,13,13,0,0,0,5.33-1,11.43,11.43,0,0,0,4-2.88,12.8,12.8,0,0,0,2.56-4.32A15.39,15.39,0,0,0,71.64,44.64Z" transform="translate(0 -7.06)"/><path d="M111.81,61.49q-.14-1.37-.21-3c0-1.1-.07-2-.07-2.73h-.15a11.11,11.11,0,0,1-4.68,4.79,13.7,13.7,0,0,1-6.84,1.83q-6.4,0-9.61-3.81t-3.2-10.08V27.79h4.89V46.44a24.43,24.43,0,0,0,.44,4.82A9.89,9.89,0,0,0,93.85,55a7,7,0,0,0,2.81,2.41,10,10,0,0,0,4.43.87,9.63,9.63,0,0,0,3.78-.79A9.35,9.35,0,0,0,108.14,55a12.07,12.07,0,0,0,2.31-4.1,18.07,18.07,0,0,0,.86-5.87V27.79h4.9V54.07c0,.91,0,2.09.07,3.53s.12,2.74.22,3.89Z" transform="translate(0 -7.06)"/><path d="M129.09,31.68c0-1.44-.12-2.74-.21-3.89h4.68c.09.91.17,1.92.21,3s.08,2,.08,2.73H134a11.7,11.7,0,0,1,4.32-4.79,11.83,11.83,0,0,1,6.48-1.83c.62,0,1.19,0,1.69.07a8.78,8.78,0,0,1,1.55.29L147.38,32a9.26,9.26,0,0,0-1.44-.29,13.58,13.58,0,0,0-2-.14,10,10,0,0,0-3.75.71,8.06,8.06,0,0,0-3.13,2.27,11.79,11.79,0,0,0-2.16,3.95,17.87,17.87,0,0,0-.83,5.78V61.49h-4.89V35.21C129.17,34.3,129.14,33.12,129.09,31.68Z" transform="translate(0 -7.06)"/><path d="M178.13,61.49h-4.9V7.06h4.9Z" transform="translate(0 -7.06)"/><path d="M224.71,44.64a18.37,18.37,0,0,1-1.33,7.06,17,17,0,0,1-3.71,5.61A16.7,16.7,0,0,1,214,61a20.34,20.34,0,0,1-14.47,0,16.8,16.8,0,0,1-5.69-3.71,17,17,0,0,1-3.71-5.61,19.4,19.4,0,0,1,0-14.12A17,17,0,0,1,193.82,32a16.8,16.8,0,0,1,5.69-3.71,20.34,20.34,0,0,1,14.47,0A16.7,16.7,0,0,1,219.67,32a17,17,0,0,1,3.71,5.61A18.37,18.37,0,0,1,224.71,44.64Zm-5.18,0a15.39,15.39,0,0,0-.9-5.29A13.13,13.13,0,0,0,216.07,35a12.11,12.11,0,0,0-4-2.92A12.75,12.75,0,0,0,206.71,31a12.47,12.47,0,0,0-5.29,1.08,12.09,12.09,0,0,0-4,2.92,12.94,12.94,0,0,0-2.55,4.32,16,16,0,0,0,0,10.58,12.94,12.94,0,0,0,2.55,4.32,11.59,11.59,0,0,0,4,2.88,12.78,12.78,0,0,0,5.29,1,13.07,13.07,0,0,0,5.33-1,11.61,11.61,0,0,0,4-2.88,13.13,13.13,0,0,0,2.56-4.32A15.39,15.39,0,0,0,219.53,44.64Z" transform="translate(0 -7.06)"/><path d="M237,68.26a16.32,16.32,0,0,0,5.51,4.39,17,17,0,0,0,13.5.75,10.6,10.6,0,0,0,4.07-2.84,11.34,11.34,0,0,0,2.26-4.21,18,18,0,0,0,.72-5.15V54.86h-.14a12.83,12.83,0,0,1-5.51,4.9,16.44,16.44,0,0,1-7.23,1.73,18.88,18.88,0,0,1-7.17-1.3,16.24,16.24,0,0,1-5.47-3.56A15.94,15.94,0,0,1,234,51.19a19,19,0,0,1,0-13.61A17.08,17.08,0,0,1,237.56,32,16.37,16.37,0,0,1,243,28.3a18,18,0,0,1,7.17-1.37,16.15,16.15,0,0,1,7.2,1.73,13.19,13.19,0,0,1,5.54,5h.14V27.79H268V61.2a24.33,24.33,0,0,1-.76,5.83,14.78,14.78,0,0,1-2.8,5.69A15.85,15.85,0,0,1,258.84,77a20.91,20.91,0,0,1-9.15,1.73,22.69,22.69,0,0,1-8.93-1.8,21.62,21.62,0,0,1-7.27-5ZM238,44.21a14.59,14.59,0,0,0,.86,5,12.69,12.69,0,0,0,2.48,4.17,11.66,11.66,0,0,0,4,2.85,13.37,13.37,0,0,0,5.4,1,14.07,14.07,0,0,0,5.18-.93A12,12,0,0,0,260,53.71a12.27,12.27,0,0,0,2.7-4.14,14.17,14.17,0,0,0,1-5.36,13.11,13.11,0,0,0-7.78-12.1A12.35,12.35,0,0,0,250.7,31a12.89,12.89,0,0,0-5.4,1.08,12,12,0,0,0-4,2.88,12.63,12.63,0,0,0-2.48,4.18A14.5,14.5,0,0,0,238,44.21Z" transform="translate(0 -7.06)"/><path d="M314.2,44.64a18.37,18.37,0,0,1-1.33,7.06A16.68,16.68,0,0,1,303.48,61a19.33,19.33,0,0,1-7.28,1.33A19.09,19.09,0,0,1,289,61a16.68,16.68,0,0,1-9.39-9.32,19.4,19.4,0,0,1,0-14.12A16.68,16.68,0,0,1,289,28.26a19.09,19.09,0,0,1,7.2-1.33,19.33,19.33,0,0,1,7.28,1.33,16.68,16.68,0,0,1,9.39,9.32A18.37,18.37,0,0,1,314.2,44.64Zm-5.18,0a15.39,15.39,0,0,0-.9-5.29A12.8,12.8,0,0,0,305.56,35a11.91,11.91,0,0,0-4-2.92A12.72,12.72,0,0,0,296.2,31a12.5,12.5,0,0,0-5.29,1.08,12.05,12.05,0,0,0-4,2.92,12.8,12.8,0,0,0-2.56,4.32,16,16,0,0,0,0,10.58,12.8,12.8,0,0,0,2.56,4.32,11.55,11.55,0,0,0,4,2.88,12.81,12.81,0,0,0,5.29,1,13,13,0,0,0,5.33-1,11.43,11.43,0,0,0,4-2.88,12.8,12.8,0,0,0,2.56-4.32A15.39,15.39,0,0,0,309,44.64Z" transform="translate(0 -7.06)"/></svg>