<svg xmlns="http://www.w3.org/2000/svg" width="1700.787" height="377.953" viewBox="0 0 450 100"><g transform="matrix(6.667948 0 0 6.667948 -210.3068 -1753.9577)"><path d="M65.117 268.066c-.475 0-.91.108-1.303.322s-.695.51-.919.885a2.4 2.4 0 0 0-.336 1.255c0 .466.11.889.329 1.269s.521.679.905.898a2.58 2.58 0 0 0 1.282.322c.347 0 .693-.078 1.036-.233a2.88 2.88 0 0 0 .905-.631l-.638-.693a2.1 2.1 0 0 1-.597.418c-.219.101-.437.151-.651.151-.27 0-.517-.066-.741-.199a1.48 1.48 0 0 1-.528-.549 1.57 1.57 0 0 1-.192-.768 1.53 1.53 0 0 1 .192-.761 1.43 1.43 0 0 1 .528-.542c.224-.133.471-.199.741-.199.224 0 .446.057.665.172a1.77 1.77 0 0 1 .583.459l.631-.775a2.55 2.55 0 0 0-.864-.583 2.57 2.57 0 0 0-1.029-.219zm29.844.021c-.338 0-.636.053-.892.158s-.455.256-.597.453a1.13 1.13 0 0 0-.213.679c0 .293.069.528.206.706a1.38 1.38 0 0 0 .514.405c.201.091.462.185.782.281l.617.213c.155.064.283.151.384.261s.151.249.151.418c0 .215-.094.386-.281.514s-.434.185-.754.185c-.27 0-.549-.059-.837-.178a2.54 2.54 0 0 1-.768-.521l-.295.569a2.79 2.79 0 0 0 .864.549 2.68 2.68 0 0 0 1.029.206c.347 0 .654-.055.919-.165s.478-.274.624-.48.226-.446.226-.72c0-.297-.071-.535-.213-.713s-.313-.32-.514-.411-.464-.187-.789-.288l-.61-.213c-.146-.064-.27-.149-.37-.254s-.151-.249-.151-.418c0-.187.082-.334.247-.439s.393-.165.672-.165a2.25 2.25 0 0 1 .658.11 2.66 2.66 0 0 1 .7.316l.274-.59a2.75 2.75 0 0 0-.741-.336 2.78 2.78 0 0 0-.844-.13zm-9.054.014c-.462 0-.885.107-1.269.322a2.42 2.42 0 0 0-.912.885c-.219.37-.329.78-.329 1.228a2.41 2.41 0 0 0 .329 1.241c.219.375.519.672.898.892s.798.322 1.255.322c.329 0 .654-.066.974-.199s.601-.325.844-.562l-.398-.432c-.187.178-.402.32-.645.425s-.489.151-.741.151c-.338 0-.649-.082-.933-.247s-.507-.389-.672-.672a1.81 1.81 0 0 1-.247-.926c0-.338.082-.647.247-.926s.389-.508.672-.672.594-.247.933-.247c.256 0 .505.055.748.165s.455.254.638.446l.391-.473a2.35 2.35 0 0 0-.816-.528c-.311-.128-.633-.192-.967-.192zm-37.631.041v4.801h1.084v-1.372h1.104l.761 1.372h1.228l-1.022-1.584a1.46 1.46 0 0 0 .665-.597c.155-.265.233-.583.233-.953 0-.53-.171-.94-.514-1.228s-.828-.439-1.454-.439h-2.085zm4.969 0v4.801h3.731v-.898h-2.647v-1.063h2.311v-.898h-2.311v-1.042H56.9v-.898h-3.655zm6.117 0l-2.085 4.801h1.118l.377-.933h2.222l.377.933h1.159l-2.051-4.801h-1.118zm7.822 0v.919h1.461v3.882h1.084v-3.882h1.468v-.919h-4.012zm4.757 0v4.801h2.085c.544 0 .969-.114 1.276-.343a1.14 1.14 0 0 0 .466-.967c0-.325-.096-.594-.288-.809s-.448-.354-.782-.405c.27-.064.482-.19.638-.377s.233-.425.233-.7a1.03 1.03 0 0 0-.425-.878c-.279-.215-.663-.322-1.152-.322h-2.051zm4.889 0v4.801h.658v-1.495h1.221c.069 0 .158-.005.267-.014l.953 1.509h.754l-1.118-1.625c.338-.119.597-.311.775-.576s.274-.592.274-.981c0-.517-.167-.914-.501-1.193s-.798-.425-1.406-.425H76.83zm4.956 0v4.801h.658v-4.801h-.658zm6.831 0v4.801h.658v-1.255l.885-.96 1.687 2.215h.796l-2.023-2.73 1.9-2.071h-.789l-2.455 2.695v-2.695h-.658zm-11.129.597h1.221c.411 0 .727.089.946.267s.329.432.329.775c0 .352-.11.62-.329.802s-.535.267-.946.267h-1.221v-2.112zm-4.889.007h1.358c.297-.005.526.055.686.178a.62.62 0 0 1 .247.528c0 .233-.082.414-.247.542s-.389.185-.686.185h-1.358v-1.433zm-23.24.295h1.001c.302 0 .533.069.693.206s.247.331.247.597-.082.475-.247.617-.391.206-.693.206h-1.001v-1.625zm10.531.233l.754 1.865h-1.516l.761-1.865zm12.709 1.502h1.358c.357 0 .636.069.837.206a.65.65 0 0 1 .302.569.68.68 0 0 1-.302.59c-.201.137-.48.204-.837.199h-1.358v-1.564z" fill="#23192d"/><path d="M35.405 265.342c-1.972-.038-1.972 2.94 0 2.902h1.189c1.972.038 1.972-2.94 0-2.902zm6.26 3.748c-1.963-.028-1.963 2.93 0 2.902h1.189c1.963.028 1.963-2.93 0-2.902zm-6.268 3.749c-1.962-.028-1.962 2.93 0 2.902h1.189c1.962.028 1.962-2.93 0-2.902z" fill="#b43278"/><path d="M40.118 265.342c-1.972-.038-1.972 2.94 0 2.902h2.729c1.972.038 1.972-2.94 0-2.902zm-4.72 3.748c-1.963-.028-1.963 2.93 0 2.902h2.729c1.963.028 1.963-2.93 0-2.902zm4.727 3.749c-1.962-.028-1.962 2.93 0 2.902h2.729c1.962.028 1.962-2.93 0-2.902z" fill="#f65a8e"/></g></svg>